STARTFONT 2.1
COMMENT Exported by Fony v1.4.6
FONT Fixed
SIZE 20 100 100
FONTBOUNDINGBOX 12 19 0 -3
STARTPROPERTIES 6
COPYRIGHT "Public domain terminal emulator font.  Share and enjoy. original font -Misc-Fixed-Medium-R-SemiCondensed--12-110-75-75-C-60-ISO10646-1"
RESOLUTION_X 100
RESOLUTION_Y 100
FONT_ASCENT 17
FONT_DESCENT 3
DEFAULT_CHAR 0
ENDPROPERTIES
CHARS 256
STARTCHAR 000
ENCODING 0
SWIDTH 360 0
DWIDTH 5 0
BBX 0 0 0 0
BITMAP
ENDCHAR
STARTCHAR 001
ENCODING 1
SWIDTH 720 0
DWIDTH 10 0
BBX 9 13 0 0
BITMAP
3000
FE00
FE00
F180
F180
C180
C180
C180
C780
C780
3F80
0600
0600
ENDCHAR
STARTCHAR 002
ENCODING 2
SWIDTH 720 0
DWIDTH 10 0
BBX 9 13 0 0
BITMAP
F000
FF80
FF80
C180
C180
C180
C180
C180
C180
C180
C180
FF80
FF80
ENDCHAR
STARTCHAR 003
ENCODING 3
SWIDTH 720 0
DWIDTH 10 0
BBX 8 8 0 2
BITMAP
08
0C
0E
FF
FF
0E
0C
08
ENDCHAR
STARTCHAR 004
ENCODING 4
SWIDTH 720 0
DWIDTH 10 0
BBX 9 14 0 0
BITMAP
0800
1C00
3E00
7F00
FF80
FF80
0800
0800
0800
0800
0800
0800
F800
F800
ENDCHAR
STARTCHAR 005
ENCODING 5
SWIDTH 720 0
DWIDTH 10 0
BBX 9 15 0 -2
BITMAP
0800
3E00
3E00
C980
C980
C980
CF80
CF80
C180
C180
C180
3E00
3E00
0800
0800
ENDCHAR
STARTCHAR 006
ENCODING 6
SWIDTH 864 0
DWIDTH 12 0
BBX 11 8 0 2
BITMAP
E700
7380
39C0
1CE0
1CE0
39C0
7380
E700
ENDCHAR
STARTCHAR 007
ENCODING 7
SWIDTH 720 0
DWIDTH 10 0
BBX 7 15 1 -2
BITMAP
FE
92
92
82
82
82
82
82
82
82
82
92
92
92
FE
ENDCHAR
STARTCHAR 008
ENCODING 8
SWIDTH 720 0
DWIDTH 10 0
BBX 7 16 1 -3
BITMAP
10
28
28
28
28
28
28
28
C6
82
92
92
92
82
82
7C
ENDCHAR
STARTCHAR 009
ENCODING 9
SWIDTH 720 0
DWIDTH 10 0
BBX 4 4 1 5
BITMAP
60
90
90
60
ENDCHAR
STARTCHAR 010
ENCODING 10
SWIDTH 360 0
DWIDTH 5 0
BBX 0 0 0 0
BITMAP
ENDCHAR
STARTCHAR 011
ENCODING 11
SWIDTH 360 0
DWIDTH 5 0
BBX 0 0 0 0
BITMAP
ENDCHAR
STARTCHAR 012
ENCODING 12
SWIDTH 360 0
DWIDTH 5 0
BBX 0 0 0 0
BITMAP
ENDCHAR
STARTCHAR 013
ENCODING 13
SWIDTH 360 0
DWIDTH 5 0
BBX 0 0 0 0
BITMAP
ENDCHAR
STARTCHAR 014
ENCODING 14
SWIDTH 360 0
DWIDTH 5 0
BBX 0 0 0 0
BITMAP
ENDCHAR
STARTCHAR 015
ENCODING 15
SWIDTH 360 0
DWIDTH 5 0
BBX 0 0 0 0
BITMAP
ENDCHAR
STARTCHAR 016
ENCODING 16
SWIDTH 360 0
DWIDTH 5 0
BBX 0 0 0 0
BITMAP
ENDCHAR
STARTCHAR 017
ENCODING 17
SWIDTH 360 0
DWIDTH 5 0
BBX 0 0 0 0
BITMAP
ENDCHAR
STARTCHAR 018
ENCODING 18
SWIDTH 360 0
DWIDTH 5 0
BBX 0 0 0 0
BITMAP
ENDCHAR
STARTCHAR 019
ENCODING 19
SWIDTH 360 0
DWIDTH 5 0
BBX 0 0 0 0
BITMAP
ENDCHAR
STARTCHAR 020
ENCODING 20
SWIDTH 360 0
DWIDTH 5 0
BBX 0 0 0 0
BITMAP
ENDCHAR
STARTCHAR 021
ENCODING 21
SWIDTH 360 0
DWIDTH 5 0
BBX 0 0 0 0
BITMAP
ENDCHAR
STARTCHAR 022
ENCODING 22
SWIDTH 360 0
DWIDTH 5 0
BBX 0 0 0 0
BITMAP
ENDCHAR
STARTCHAR 023
ENCODING 23
SWIDTH 360 0
DWIDTH 5 0
BBX 0 0 0 0
BITMAP
ENDCHAR
STARTCHAR 024
ENCODING 24
SWIDTH 360 0
DWIDTH 5 0
BBX 0 0 0 0
BITMAP
ENDCHAR
STARTCHAR 025
ENCODING 25
SWIDTH 360 0
DWIDTH 5 0
BBX 0 0 0 0
BITMAP
ENDCHAR
STARTCHAR 026
ENCODING 26
SWIDTH 360 0
DWIDTH 5 0
BBX 0 0 0 0
BITMAP
ENDCHAR
STARTCHAR 027
ENCODING 27
SWIDTH 360 0
DWIDTH 5 0
BBX 0 0 0 0
BITMAP
ENDCHAR
STARTCHAR 028
ENCODING 28
SWIDTH 360 0
DWIDTH 5 0
BBX 0 0 0 0
BITMAP
ENDCHAR
STARTCHAR 029
ENCODING 29
SWIDTH 360 0
DWIDTH 5 0
BBX 0 0 0 0
BITMAP
ENDCHAR
STARTCHAR 030
ENCODING 30
SWIDTH 360 0
DWIDTH 5 0
BBX 0 0 0 0
BITMAP
ENDCHAR
STARTCHAR 031
ENCODING 31
SWIDTH 360 0
DWIDTH 5 0
BBX 0 0 0 0
BITMAP
ENDCHAR
STARTCHAR 032
ENCODING 32
SWIDTH 720 0
DWIDTH 10 0
BBX 0 0 0 0
BITMAP
ENDCHAR
STARTCHAR 033
ENCODING 33
SWIDTH 720 0
DWIDTH 10 0
BBX 1 12 4 0
BITMAP
80
80
80
80
80
80
80
80
80
00
80
80
ENDCHAR
STARTCHAR 034
ENCODING 34
SWIDTH 720 0
DWIDTH 10 0
BBX 4 5 2 8
BITMAP
90
90
90
90
90
ENDCHAR
STARTCHAR 035
ENCODING 35
SWIDTH 720 0
DWIDTH 10 0
BBX 9 10 0 0
BITMAP
2200
2200
FF80
2200
2200
2200
2200
FF80
2200
2200
ENDCHAR
STARTCHAR 036
ENCODING 36
SWIDTH 720 0
DWIDTH 10 0
BBX 9 16 0 -2
BITMAP
0800
0800
3E00
4900
8880
8880
4800
3E00
0900
0880
0880
8880
4900
3E00
0800
0800
ENDCHAR
STARTCHAR 037
ENCODING 37
SWIDTH 720 0
DWIDTH 10 0
BBX 9 12 0 0
BITMAP
E080
E080
E100
0200
0400
0800
0800
1000
2000
4380
8380
8380
ENDCHAR
STARTCHAR 038
ENCODING 38
SWIDTH 720 0
DWIDTH 10 0
BBX 9 11 0 0
BITMAP
3000
4800
8800
4800
3000
3000
4880
8900
4600
2900
1080
ENDCHAR
STARTCHAR 039
ENCODING 39
SWIDTH 720 0
DWIDTH 10 0
BBX 1 5 4 8
BITMAP
80
80
80
80
80
ENDCHAR
STARTCHAR 040
ENCODING 40
SWIDTH 720 0
DWIDTH 10 0
BBX 5 15 2 -2
BITMAP
18
20
20
40
40
40
80
80
80
40
40
40
20
20
18
ENDCHAR
STARTCHAR 041
ENCODING 41
SWIDTH 720 0
DWIDTH 10 0
BBX 5 15 2 -2
BITMAP
C0
20
20
10
10
10
08
08
08
10
10
10
20
20
C0
ENDCHAR
STARTCHAR 042
ENCODING 42
SWIDTH 720 0
DWIDTH 10 0
BBX 9 12 0 0
BITMAP
0800
0800
8880
4900
3E00
0800
0800
3E00
4900
8880
0800
0800
ENDCHAR
STARTCHAR 043
ENCODING 43
SWIDTH 720 0
DWIDTH 10 0
BBX 9 9 0 1
BITMAP
0800
0800
0800
0800
FF80
0800
0800
0800
0800
ENDCHAR
STARTCHAR 044
ENCODING 44
SWIDTH 720 0
DWIDTH 10 0
BBX 3 5 2 -2
BITMAP
E0
20
20
40
80
ENDCHAR
STARTCHAR 045
ENCODING 45
SWIDTH 720 0
DWIDTH 10 0
BBX 9 1 0 5
BITMAP
FF80
ENDCHAR
STARTCHAR 046
ENCODING 46
SWIDTH 720 0
DWIDTH 10 0
BBX 2 2 3 0
BITMAP
C0
C0
ENDCHAR
STARTCHAR 047
ENCODING 47
SWIDTH 720 0
DWIDTH 10 0
BBX 9 12 0 0
BITMAP
0080
0100
0200
0200
0400
0800
0800
1000
1000
2000
4000
8000
ENDCHAR
STARTCHAR 048
ENCODING 48
SWIDTH 720 0
DWIDTH 10 0
BBX 9 12 0 0
BITMAP
1C00
2200
4100
8080
8380
8480
9880
E080
8080
4100
2200
1C00
ENDCHAR
STARTCHAR 049
ENCODING 49
SWIDTH 720 0
DWIDTH 10 0
BBX 5 12 2 0
BITMAP
20
20
E0
20
20
20
20
20
20
20
20
F8
ENDCHAR
STARTCHAR 050
ENCODING 50
SWIDTH 720 0
DWIDTH 10 0
BBX 9 12 0 0
BITMAP
1C00
2200
4100
8080
0100
0200
0400
0800
1000
2000
4000
FF80
ENDCHAR
STARTCHAR 051
ENCODING 51
SWIDTH 720 0
DWIDTH 10 0
BBX 9 12 0 0
BITMAP
FF00
0180
0080
0100
0200
0400
0E00
0100
0080
C100
2200
1C00
ENDCHAR
STARTCHAR 052
ENCODING 52
SWIDTH 720 0
DWIDTH 10 0
BBX 9 12 0 0
BITMAP
0200
0600
0A00
1200
2200
4200
8200
8200
FF80
0200
0200
0200
ENDCHAR
STARTCHAR 053
ENCODING 53
SWIDTH 720 0
DWIDTH 10 0
BBX 9 12 0 0
BITMAP
FF80
8000
8000
8000
FE00
0100
0080
0080
8080
4100
2200
1C00
ENDCHAR
STARTCHAR 054
ENCODING 54
SWIDTH 720 0
DWIDTH 10 0
BBX 8 12 0 0
BITMAP
06
08
10
20
40
FC
82
81
81
41
22
1C
ENDCHAR
STARTCHAR 055
ENCODING 55
SWIDTH 720 0
DWIDTH 10 0
BBX 9 12 0 0
BITMAP
FF80
0080
0080
0100
0200
0400
0800
0800
0800
0800
0800
0800
ENDCHAR
STARTCHAR 056
ENCODING 56
SWIDTH 720 0
DWIDTH 10 0
BBX 9 12 0 0
BITMAP
3E00
4100
8080
8080
4100
3E00
4100
8080
8080
8080
4100
3E00
ENDCHAR
STARTCHAR 057
ENCODING 57
SWIDTH 720 0
DWIDTH 10 0
BBX 8 12 1 0
BITMAP
3C
42
81
81
81
41
3F
01
02
04
08
70
ENDCHAR
STARTCHAR 058
ENCODING 58
SWIDTH 720 0
DWIDTH 10 0
BBX 2 7 2 0
BITMAP
C0
C0
00
00
00
C0
C0
ENDCHAR
STARTCHAR 059
ENCODING 59
SWIDTH 720 0
DWIDTH 10 0
BBX 3 9 2 -2
BITMAP
C0
C0
00
00
E0
20
20
40
80
ENDCHAR
STARTCHAR 060
ENCODING 60
SWIDTH 720 0
DWIDTH 10 0
BBX 4 8 2 2
BITMAP
10
20
40
80
80
40
20
10
ENDCHAR
STARTCHAR 061
ENCODING 61
SWIDTH 720 0
DWIDTH 10 0
BBX 9 5 0 3
BITMAP
FF80
0000
0000
0000
FF80
ENDCHAR
STARTCHAR 062
ENCODING 62
SWIDTH 720 0
DWIDTH 10 0
BBX 4 8 2 2
BITMAP
80
40
20
10
10
20
40
80
ENDCHAR
STARTCHAR 063
ENCODING 63
SWIDTH 720 0
DWIDTH 10 0
BBX 8 12 0 0
BITMAP
1C
22
41
81
02
04
08
08
08
00
00
08
ENDCHAR
STARTCHAR 064
ENCODING 64
SWIDTH 720 0
DWIDTH 10 0
BBX 9 12 0 0
BITMAP
1C00
2200
4100
8080
8780
8880
8880
8880
8700
4000
2000
1E00
ENDCHAR
STARTCHAR 065
ENCODING 65
SWIDTH 720 0
DWIDTH 10 0
BBX 9 12 0 0
BITMAP
1C00
2200
4100
8080
8080
8080
FF80
8080
8080
8080
8080
8080
ENDCHAR
STARTCHAR 066
ENCODING 66
SWIDTH 720 0
DWIDTH 10 0
BBX 8 12 1 0
BITMAP
FC
42
41
41
42
7C
42
41
41
41
42
FC
ENDCHAR
STARTCHAR 067
ENCODING 67
SWIDTH 720 0
DWIDTH 10 0
BBX 9 12 0 0
BITMAP
1C00
2200
4100
8080
8000
8000
8000
8000
8080
4100
2200
1C00
ENDCHAR
STARTCHAR 068
ENCODING 68
SWIDTH 720 0
DWIDTH 10 0
BBX 8 12 1 0
BITMAP
F8
44
42
41
41
41
41
41
41
42
44
F8
ENDCHAR
STARTCHAR 069
ENCODING 69
SWIDTH 720 0
DWIDTH 10 0
BBX 9 12 0 0
BITMAP
FF80
8000
8000
8000
8000
FE00
8000
8000
8000
8000
8000
FF80
ENDCHAR
STARTCHAR 070
ENCODING 70
SWIDTH 720 0
DWIDTH 10 0
BBX 9 12 0 0
BITMAP
FF80
8000
8000
8000
8000
FE00
8000
8000
8000
8000
8000
8000
ENDCHAR
STARTCHAR 071
ENCODING 71
SWIDTH 720 0
DWIDTH 10 0
BBX 9 12 0 0
BITMAP
1C00
2200
4100
8080
8000
8000
8000
8780
8080
4100
2200
1C00
ENDCHAR
STARTCHAR 072
ENCODING 72
SWIDTH 720 0
DWIDTH 10 0
BBX 9 12 0 0
BITMAP
8080
8080
8080
8080
8080
FF80
8080
8080
8080
8080
8080
8080
ENDCHAR
STARTCHAR 073
ENCODING 73
SWIDTH 720 0
DWIDTH 10 0
BBX 5 12 2 0
BITMAP
F8
20
20
20
20
20
20
20
20
20
20
F8
ENDCHAR
STARTCHAR 074
ENCODING 74
SWIDTH 720 0
DWIDTH 10 0
BBX 9 12 0 0
BITMAP
0F80
0200
0200
0200
0200
0200
0200
0200
0200
8200
4400
3800
ENDCHAR
STARTCHAR 075
ENCODING 75
SWIDTH 720 0
DWIDTH 10 0
BBX 8 12 1 0
BITMAP
81
82
84
88
90
E0
A0
90
88
84
82
81
ENDCHAR
STARTCHAR 076
ENCODING 76
SWIDTH 720 0
DWIDTH 10 0
BBX 9 12 0 0
BITMAP
8000
8000
8000
8000
8000
8000
8000
8000
8000
8000
8000
FF80
ENDCHAR
STARTCHAR 077
ENCODING 77
SWIDTH 720 0
DWIDTH 10 0
BBX 9 12 0 0
BITMAP
8080
C180
A280
9480
8880
8080
8080
8080
8080
8080
8080
8080
ENDCHAR
STARTCHAR 078
ENCODING 78
SWIDTH 720 0
DWIDTH 10 0
BBX 9 12 0 0
BITMAP
8080
8080
8080
C080
A080
9080
8880
8480
8280
8180
8080
8080
ENDCHAR
STARTCHAR 079
ENCODING 79
SWIDTH 720 0
DWIDTH 10 0
BBX 9 12 0 0
BITMAP
1C00
2200
4100
8080
8080
8080
8080
8080
8080
4100
2200
1C00
ENDCHAR
STARTCHAR 080
ENCODING 80
SWIDTH 720 0
DWIDTH 10 0
BBX 8 12 0 0
BITMAP
FC
82
81
81
81
82
FC
80
80
80
80
80
ENDCHAR
STARTCHAR 081
ENCODING 81
SWIDTH 720 0
DWIDTH 10 0
BBX 9 12 0 0
BITMAP
1C00
2200
4100
8080
8080
8080
8080
8080
8480
4200
2100
1C80
ENDCHAR
STARTCHAR 082
ENCODING 82
SWIDTH 720 0
DWIDTH 10 0
BBX 8 12 0 0
BITMAP
FC
82
81
81
81
FE
90
90
88
84
82
81
ENDCHAR
STARTCHAR 083
ENCODING 83
SWIDTH 720 0
DWIDTH 10 0
BBX 8 12 1 0
BITMAP
3C
42
81
80
80
7C
02
01
01
81
42
3C
ENDCHAR
STARTCHAR 084
ENCODING 84
SWIDTH 720 0
DWIDTH 10 0
BBX 9 12 0 0
BITMAP
FF80
0800
0800
0800
0800
0800
0800
0800
0800
0800
0800
0800
ENDCHAR
STARTCHAR 085
ENCODING 85
SWIDTH 720 0
DWIDTH 10 0
BBX 9 12 0 0
BITMAP
8080
8080
8080
8080
8080
8080
8080
8080
8080
8080
4100
3E00
ENDCHAR
STARTCHAR 086
ENCODING 86
SWIDTH 720 0
DWIDTH 10 0
BBX 9 12 0 0
BITMAP
8080
8080
8080
8080
8080
8080
8080
8080
4100
2200
1400
0800
ENDCHAR
STARTCHAR 087
ENCODING 87
SWIDTH 720 0
DWIDTH 10 0
BBX 9 12 0 0
BITMAP
8080
8080
8080
8080
8080
8080
8080
8880
8880
8880
5500
2200
ENDCHAR
STARTCHAR 088
ENCODING 88
SWIDTH 720 0
DWIDTH 10 0
BBX 9 12 0 0
BITMAP
8080
8080
4100
2200
1400
0800
0800
1400
2200
4100
8080
8080
ENDCHAR
STARTCHAR 089
ENCODING 89
SWIDTH 720 0
DWIDTH 10 0
BBX 9 12 0 0
BITMAP
8080
8080
8080
4100
2200
1400
0800
0800
0800
0800
0800
0800
ENDCHAR
STARTCHAR 090
ENCODING 90
SWIDTH 720 0
DWIDTH 10 0
BBX 9 12 0 0
BITMAP
FF80
0080
0080
0100
0200
0400
0800
1000
2000
4000
8000
FF80
ENDCHAR
STARTCHAR 091
ENCODING 91
SWIDTH 720 0
DWIDTH 10 0
BBX 5 15 2 -2
BITMAP
F8
80
80
80
80
80
80
80
80
80
80
80
80
80
F8
ENDCHAR
STARTCHAR 092
ENCODING 92
SWIDTH 720 0
DWIDTH 10 0
BBX 9 12 0 0
BITMAP
8000
4000
2000
1000
1000
0800
0800
0400
0400
0200
0100
0080
ENDCHAR
STARTCHAR 093
ENCODING 93
SWIDTH 720 0
DWIDTH 10 0
BBX 5 15 2 -2
BITMAP
F8
08
08
08
08
08
08
08
08
08
08
08
08
08
F8
ENDCHAR
STARTCHAR 094
ENCODING 94
SWIDTH 720 0
DWIDTH 10 0
BBX 9 5 0 8
BITMAP
0800
1400
2200
4100
8080
ENDCHAR
STARTCHAR 095
ENCODING 95
SWIDTH 720 0
DWIDTH 10 0
BBX 9 1 0 -3
BITMAP
FF80
ENDCHAR
STARTCHAR 096
ENCODING 96
SWIDTH 720 0
DWIDTH 10 0
BBX 5 5 2 8
BITMAP
80
40
20
10
08
ENDCHAR
STARTCHAR 097
ENCODING 97
SWIDTH 720 0
DWIDTH 10 0
BBX 8 8 1 0
BITMAP
7C
02
01
7F
81
81
81
7F
ENDCHAR
STARTCHAR 098
ENCODING 98
SWIDTH 720 0
DWIDTH 10 0
BBX 9 12 0 0
BITMAP
8000
8000
8000
8000
FE00
8100
8080
8080
8080
8080
8100
FE00
ENDCHAR
STARTCHAR 099
ENCODING 99
SWIDTH 720 0
DWIDTH 10 0
BBX 8 8 0 0
BITMAP
3E
40
80
80
80
41
22
1C
ENDCHAR
STARTCHAR 100
ENCODING 100
SWIDTH 720 0
DWIDTH 10 0
BBX 9 12 0 0
BITMAP
0080
0080
0080
0080
3F80
4080
8080
8080
8080
8080
4080
3F80
ENDCHAR
STARTCHAR 101
ENCODING 101
SWIDTH 720 0
DWIDTH 10 0
BBX 8 8 0 0
BITMAP
7E
81
81
81
FE
80
40
3E
ENDCHAR
STARTCHAR 102
ENCODING 102
SWIDTH 720 0
DWIDTH 10 0
BBX 9 11 0 0
BITMAP
0E00
1100
2080
2000
2000
F800
2000
2000
2000
2000
2000
ENDCHAR
STARTCHAR 103
ENCODING 103
SWIDTH 720 0
DWIDTH 10 0
BBX 9 11 0 -3
BITMAP
3E00
4100
8080
8080
8080
8080
4080
3F80
0080
0100
3E00
ENDCHAR
STARTCHAR 104
ENCODING 104
SWIDTH 720 0
DWIDTH 10 0
BBX 9 12 0 0
BITMAP
8000
8000
8000
8000
FE00
8100
8080
8080
8080
8080
8080
8080
ENDCHAR
STARTCHAR 105
ENCODING 105
SWIDTH 720 0
DWIDTH 10 0
BBX 5 12 2 0
BITMAP
20
00
00
00
E0
20
20
20
20
20
20
F8
ENDCHAR
STARTCHAR 106
ENCODING 106
SWIDTH 720 0
DWIDTH 10 0
BBX 7 15 2 -3
BITMAP
02
00
00
00
1E
02
02
02
02
02
02
02
82
44
38
ENDCHAR
STARTCHAR 107
ENCODING 107
SWIDTH 720 0
DWIDTH 10 0
BBX 9 12 0 0
BITMAP
8000
8000
8000
8080
8100
8200
8400
F800
8400
8200
8100
8080
ENDCHAR
STARTCHAR 108
ENCODING 108
SWIDTH 720 0
DWIDTH 10 0
BBX 5 12 2 0
BITMAP
E0
20
20
20
20
20
20
20
20
20
20
F8
ENDCHAR
STARTCHAR 109
ENCODING 109
SWIDTH 720 0
DWIDTH 10 0
BBX 9 8 0 0
BITMAP
F600
8900
8880
8880
8880
8880
8880
8880
ENDCHAR
STARTCHAR 110
ENCODING 110
SWIDTH 720 0
DWIDTH 10 0
BBX 9 8 0 0
BITMAP
9E00
A100
C080
8080
8080
8080
8080
8080
ENDCHAR
STARTCHAR 111
ENCODING 111
SWIDTH 720 0
DWIDTH 10 0
BBX 9 8 0 0
BITMAP
3E00
4100
8080
8080
8080
8080
4100
3E00
ENDCHAR
STARTCHAR 112
ENCODING 112
SWIDTH 720 0
DWIDTH 10 0
BBX 9 11 0 -3
BITMAP
FE00
8100
8080
8080
8080
8080
8100
FE00
8000
8000
8000
ENDCHAR
STARTCHAR 113
ENCODING 113
SWIDTH 720 0
DWIDTH 10 0
BBX 9 11 0 -3
BITMAP
3F00
4080
8080
8080
8080
8080
4080
3F80
0080
0080
0080
ENDCHAR
STARTCHAR 114
ENCODING 114
SWIDTH 720 0
DWIDTH 10 0
BBX 9 8 0 0
BITMAP
9E00
A100
C080
8000
8000
8000
8000
8000
ENDCHAR
STARTCHAR 115
ENCODING 115
SWIDTH 720 0
DWIDTH 10 0
BBX 9 8 0 0
BITMAP
3F80
4000
4000
3E00
0100
0080
0100
FE00
ENDCHAR
STARTCHAR 116
ENCODING 116
SWIDTH 720 0
DWIDTH 10 0
BBX 9 12 0 0
BITMAP
0800
0800
0800
0800
FF80
0800
0800
0800
0800
0800
0400
0380
ENDCHAR
STARTCHAR 117
ENCODING 117
SWIDTH 720 0
DWIDTH 10 0
BBX 9 8 0 0
BITMAP
8080
8080
8080
8080
8180
8280
4480
3880
ENDCHAR
STARTCHAR 118
ENCODING 118
SWIDTH 720 0
DWIDTH 10 0
BBX 9 8 0 0
BITMAP
8080
8080
8080
8080
4100
2200
1400
0800
ENDCHAR
STARTCHAR 119
ENCODING 119
SWIDTH 720 0
DWIDTH 10 0
BBX 9 8 0 0
BITMAP
8080
8080
8080
8880
8880
8880
5500
2200
ENDCHAR
STARTCHAR 120
ENCODING 120
SWIDTH 720 0
DWIDTH 10 0
BBX 9 9 0 0
BITMAP
8080
4100
2200
1400
0800
1400
2200
4100
8080
ENDCHAR
STARTCHAR 121
ENCODING 121
SWIDTH 720 0
DWIDTH 10 0
BBX 9 11 0 -3
BITMAP
8080
8080
8080
8080
4100
2200
1400
0800
1000
2000
4000
ENDCHAR
STARTCHAR 122
ENCODING 122
SWIDTH 720 0
DWIDTH 10 0
BBX 8 8 0 0
BITMAP
FF
02
04
08
10
20
40
FF
ENDCHAR
STARTCHAR 123
ENCODING 123
SWIDTH 720 0
DWIDTH 10 0
BBX 4 16 3 -2
BITMAP
10
20
40
40
40
40
40
80
80
40
40
40
40
40
20
10
ENDCHAR
STARTCHAR 124
ENCODING 124
SWIDTH 720 0
DWIDTH 10 0
BBX 1 15 4 -2
BITMAP
80
80
80
80
80
80
80
80
80
80
80
80
80
80
80
ENDCHAR
STARTCHAR 125
ENCODING 125
SWIDTH 720 0
DWIDTH 10 0
BBX 4 16 2 -2
BITMAP
80
40
20
20
20
20
20
10
10
20
20
20
20
20
40
80
ENDCHAR
STARTCHAR 126
ENCODING 126
SWIDTH 720 0
DWIDTH 10 0
BBX 10 5 0 3
BITMAP
3040
4840
8880
8500
8200
ENDCHAR
STARTCHAR 127
ENCODING 127
SWIDTH 360 0
DWIDTH 5 0
BBX 0 0 0 0
BITMAP
ENDCHAR
STARTCHAR 128
ENCODING 128
SWIDTH 360 0
DWIDTH 5 0
BBX 0 0 0 0
BITMAP
ENDCHAR
STARTCHAR 129
ENCODING 129
SWIDTH 360 0
DWIDTH 5 0
BBX 0 0 0 0
BITMAP
ENDCHAR
STARTCHAR 130
ENCODING 130
SWIDTH 360 0
DWIDTH 5 0
BBX 0 0 0 0
BITMAP
ENDCHAR
STARTCHAR 131
ENCODING 131
SWIDTH 360 0
DWIDTH 5 0
BBX 0 0 0 0
BITMAP
ENDCHAR
STARTCHAR 132
ENCODING 132
SWIDTH 360 0
DWIDTH 5 0
BBX 0 0 0 0
BITMAP
ENDCHAR
STARTCHAR 133
ENCODING 133
SWIDTH 360 0
DWIDTH 5 0
BBX 0 0 0 0
BITMAP
ENDCHAR
STARTCHAR 134
ENCODING 134
SWIDTH 360 0
DWIDTH 5 0
BBX 0 0 0 0
BITMAP
ENDCHAR
STARTCHAR 135
ENCODING 135
SWIDTH 360 0
DWIDTH 5 0
BBX 0 0 0 0
BITMAP
ENDCHAR
STARTCHAR 136
ENCODING 136
SWIDTH 360 0
DWIDTH 5 0
BBX 0 0 0 0
BITMAP
ENDCHAR
STARTCHAR 137
ENCODING 137
SWIDTH 360 0
DWIDTH 5 0
BBX 0 0 0 0
BITMAP
ENDCHAR
STARTCHAR 138
ENCODING 138
SWIDTH 360 0
DWIDTH 5 0
BBX 0 0 0 0
BITMAP
ENDCHAR
STARTCHAR 139
ENCODING 139
SWIDTH 360 0
DWIDTH 5 0
BBX 0 0 0 0
BITMAP
ENDCHAR
STARTCHAR 140
ENCODING 140
SWIDTH 360 0
DWIDTH 5 0
BBX 0 0 0 0
BITMAP
ENDCHAR
STARTCHAR 141
ENCODING 141
SWIDTH 360 0
DWIDTH 5 0
BBX 0 0 0 0
BITMAP
ENDCHAR
STARTCHAR 142
ENCODING 142
SWIDTH 360 0
DWIDTH 5 0
BBX 0 0 0 0
BITMAP
ENDCHAR
STARTCHAR 143
ENCODING 143
SWIDTH 360 0
DWIDTH 5 0
BBX 0 0 0 0
BITMAP
ENDCHAR
STARTCHAR 144
ENCODING 144
SWIDTH 360 0
DWIDTH 5 0
BBX 0 0 0 0
BITMAP
ENDCHAR
STARTCHAR 145
ENCODING 145
SWIDTH 360 0
DWIDTH 5 0
BBX 0 0 0 0
BITMAP
ENDCHAR
STARTCHAR 146
ENCODING 146
SWIDTH 360 0
DWIDTH 5 0
BBX 0 0 0 0
BITMAP
ENDCHAR
STARTCHAR 147
ENCODING 147
SWIDTH 360 0
DWIDTH 5 0
BBX 0 0 0 0
BITMAP
ENDCHAR
STARTCHAR 148
ENCODING 148
SWIDTH 360 0
DWIDTH 5 0
BBX 0 0 0 0
BITMAP
ENDCHAR
STARTCHAR 149
ENCODING 149
SWIDTH 360 0
DWIDTH 5 0
BBX 0 0 0 0
BITMAP
ENDCHAR
STARTCHAR 150
ENCODING 150
SWIDTH 360 0
DWIDTH 5 0
BBX 0 0 0 0
BITMAP
ENDCHAR
STARTCHAR 151
ENCODING 151
SWIDTH 360 0
DWIDTH 5 0
BBX 0 0 0 0
BITMAP
ENDCHAR
STARTCHAR 152
ENCODING 152
SWIDTH 360 0
DWIDTH 5 0
BBX 0 0 0 0
BITMAP
ENDCHAR
STARTCHAR 153
ENCODING 153
SWIDTH 360 0
DWIDTH 5 0
BBX 0 0 0 0
BITMAP
ENDCHAR
STARTCHAR 154
ENCODING 154
SWIDTH 360 0
DWIDTH 5 0
BBX 0 0 0 0
BITMAP
ENDCHAR
STARTCHAR 155
ENCODING 155
SWIDTH 360 0
DWIDTH 5 0
BBX 0 0 0 0
BITMAP
ENDCHAR
STARTCHAR 156
ENCODING 156
SWIDTH 360 0
DWIDTH 5 0
BBX 0 0 0 0
BITMAP
ENDCHAR
STARTCHAR 157
ENCODING 157
SWIDTH 360 0
DWIDTH 5 0
BBX 0 0 0 0
BITMAP
ENDCHAR
STARTCHAR 158
ENCODING 158
SWIDTH 360 0
DWIDTH 5 0
BBX 0 0 0 0
BITMAP
ENDCHAR
STARTCHAR 159
ENCODING 159
SWIDTH 360 0
DWIDTH 5 0
BBX 0 0 0 0
BITMAP
ENDCHAR
STARTCHAR 160
ENCODING 160
SWIDTH 720 0
DWIDTH 10 0
BBX 0 0 0 0
BITMAP
ENDCHAR
STARTCHAR 161
ENCODING 161
SWIDTH 720 0
DWIDTH 10 0
BBX 1 12 4 0
BITMAP
80
80
00
00
80
80
80
80
80
80
80
80
ENDCHAR
STARTCHAR 162
ENCODING 162
SWIDTH 720 0
DWIDTH 10 0
BBX 9 12 0 -2
BITMAP
0800
0800
3E00
C980
C980
C800
C800
C980
3E00
3E00
0800
0800
ENDCHAR
STARTCHAR 163
ENCODING 163
SWIDTH 720 0
DWIDTH 10 0
BBX 9 12 0 0
BITMAP
0E00
0E00
3180
3180
3000
F800
F800
3000
3000
3180
CE00
CE00
ENDCHAR
STARTCHAR 164
ENCODING 164
SWIDTH 720 0
DWIDTH 10 0
BBX 9 8 0 0
BITMAP
C980
3600
3600
C180
C180
3600
C980
C980
ENDCHAR
STARTCHAR 165
ENCODING 165
SWIDTH 720 0
DWIDTH 10 0
BBX 9 12 0 0
BITMAP
C180
C180
3600
3600
FF80
0800
0800
FF80
FF80
0800
0800
0800
ENDCHAR
STARTCHAR 166
ENCODING 166
SWIDTH 720 0
DWIDTH 10 0
BBX 1 12 4 0
BITMAP
80
80
80
80
80
00
00
80
80
80
80
80
ENDCHAR
STARTCHAR 167
ENCODING 167
SWIDTH 720 0
DWIDTH 10 0
BBX 7 13 2 0
BITMAP
3E
C0
C0
38
38
C6
C6
C6
38
38
06
F8
F8
ENDCHAR
STARTCHAR 168
ENCODING 168
SWIDTH 720 0
DWIDTH 10 0
BBX 5 1 2 12
BITMAP
D8
ENDCHAR
STARTCHAR 169
ENCODING 169
SWIDTH 720 0
DWIDTH 10 0
BBX 10 12 0 0
BITMAP
3F80
3F80
C040
C040
CE40
C840
C840
CE40
CE40
C040
3F80
3F80
ENDCHAR
STARTCHAR 170
ENCODING 170
SWIDTH 720 0
DWIDTH 10 0
BBX 5 8 2 7
BITMAP
38
38
D8
38
38
00
00
F8
ENDCHAR
STARTCHAR 171
ENCODING 171
SWIDTH 720 0
DWIDTH 10 0
BBX 9 8 0 0
BITMAP
0980
3600
3600
C800
C800
3600
0980
0980
ENDCHAR
STARTCHAR 172
ENCODING 172
SWIDTH 720 0
DWIDTH 10 0
BBX 9 5 0 2
BITMAP
FF80
FF80
0180
0180
0180
ENDCHAR
STARTCHAR 173
ENCODING 173
SWIDTH 720 0
DWIDTH 10 0
BBX 5 2 2 5
BITMAP
F8
F8
ENDCHAR
STARTCHAR 174
ENCODING 174
SWIDTH 720 0
DWIDTH 10 0
BBX 10 12 0 0
BITMAP
3F80
3F80
C040
C040
CE40
C840
C840
C840
C840
C040
3F80
3F80
ENDCHAR
STARTCHAR 175
ENCODING 175
SWIDTH 720 0
DWIDTH 10 0
BBX 9 1 0 12
BITMAP
FF80
ENDCHAR
STARTCHAR 176
ENCODING 176
SWIDTH 720 0
DWIDTH 10 0
BBX 7 7 2 8
BITMAP
38
38
C6
C6
C6
38
38
ENDCHAR
STARTCHAR 177
ENCODING 177
SWIDTH 720 0
DWIDTH 10 0
BBX 9 12 0 0
BITMAP
0800
0800
0800
0800
FF80
0800
0800
0800
0800
0000
FF80
FF80
ENDCHAR
STARTCHAR 178
ENCODING 178
SWIDTH 720 0
DWIDTH 10 0
BBX 5 8 2 7
BITMAP
20
20
D8
18
18
20
20
F8
ENDCHAR
STARTCHAR 179
ENCODING 179
SWIDTH 720 0
DWIDTH 10 0
BBX 5 8 2 7
BITMAP
E0
E0
18
20
20
18
18
E0
ENDCHAR
STARTCHAR 180
ENCODING 180
SWIDTH 720 0
DWIDTH 10 0
BBX 5 5 2 8
BITMAP
18
20
20
C0
C0
ENDCHAR
STARTCHAR 181
ENCODING 181
SWIDTH 720 0
DWIDTH 10 0
BBX 9 11 0 -3
BITMAP
C180
C180
C180
C180
C180
C780
F980
F980
C000
C000
C000
ENDCHAR
STARTCHAR 182
ENCODING 182
SWIDTH 720 0
DWIDTH 10 0
BBX 9 13 0 0
BITMAP
3F80
F980
F980
F980
F980
F980
3980
3980
0980
0980
0980
0980
0980
ENDCHAR
STARTCHAR 183
ENCODING 183
SWIDTH 720 0
DWIDTH 10 0
BBX 3 3 4 5
BITMAP
E0
E0
E0
ENDCHAR
STARTCHAR 184
ENCODING 184
SWIDTH 720 0
DWIDTH 10 0
BBX 5 3 2 -3
BITMAP
18
18
E0
ENDCHAR
STARTCHAR 185
ENCODING 185
SWIDTH 720 0
DWIDTH 10 0
BBX 5 8 2 7
BITMAP
20
20
E0
20
20
20
20
F8
ENDCHAR
STARTCHAR 186
ENCODING 186
SWIDTH 720 0
DWIDTH 10 0
BBX 5 9 2 8
BITMAP
20
20
D8
D8
20
00
00
F8
F8
ENDCHAR
STARTCHAR 187
ENCODING 187
SWIDTH 720 0
DWIDTH 10 0
BBX 9 8 0 0
BITMAP
C800
3600
3600
0980
0980
3600
C800
C800
ENDCHAR
STARTCHAR 188
ENCODING 188
SWIDTH 720 0
DWIDTH 10 0
BBX 9 17 0 0
BITMAP
3000
3000
F000
F000
3180
3600
3600
3800
3800
3600
CE00
CE00
3600
3600
3F80
0600
0600
ENDCHAR
STARTCHAR 189
ENCODING 189
SWIDTH 720 0
DWIDTH 10 0
BBX 9 17 0 0
BITMAP
3000
3000
F000
F000
3180
3600
3600
3800
3800
3600
C980
C980
0180
0180
0600
0F80
0F80
ENDCHAR
STARTCHAR 190
ENCODING 190
SWIDTH 720 0
DWIDTH 10 0
BBX 9 17 0 0
BITMAP
F000
F000
0800
0800
3180
0E00
0E00
F800
F800
3600
CE00
CE00
3600
3600
3F80
0600
0600
ENDCHAR
STARTCHAR 191
ENCODING 191
SWIDTH 720 0
DWIDTH 10 0
BBX 9 12 0 0
BITMAP
0800
0800
0000
0000
0800
0800
0800
3000
3000
C180
3E00
3E00
ENDCHAR
STARTCHAR 192
ENCODING 192
SWIDTH 720 0
DWIDTH 10 0
BBX 9 17 0 0
BITMAP
3000
3000
0800
0800
0000
3E00
3E00
C180
C180
C180
FF80
FF80
C180
C180
C180
C180
C180
ENDCHAR
STARTCHAR 193
ENCODING 193
SWIDTH 720 0
DWIDTH 10 0
BBX 9 17 0 0
BITMAP
0600
0600
0800
0800
0000
3E00
3E00
C180
C180
C180
FF80
FF80
C180
C180
C180
C180
C180
ENDCHAR
STARTCHAR 194
ENCODING 194
SWIDTH 720 0
DWIDTH 10 0
BBX 9 17 0 0
BITMAP
0800
0800
3600
3600
0000
3E00
3E00
C180
C180
C180
FF80
FF80
C180
C180
C180
C180
C180
ENDCHAR
STARTCHAR 195
ENCODING 195
SWIDTH 720 0
DWIDTH 10 0
BBX 9 17 0 0
BITMAP
3980
3980
CE00
CE00
0000
3E00
3E00
C180
C180
C180
FF80
FF80
C180
C180
C180
C180
C180
ENDCHAR
STARTCHAR 196
ENCODING 196
SWIDTH 720 0
DWIDTH 10 0
BBX 9 15 0 0
BITMAP
3600
3600
0000
3E00
3E00
C180
C180
C180
FF80
FF80
C180
C180
C180
C180
C180
ENDCHAR
STARTCHAR 197
ENCODING 197
SWIDTH 720 0
DWIDTH 10 0
BBX 9 17 0 0
BITMAP
0800
0800
3600
3600
0800
3E00
3E00
C180
C180
C180
FF80
FF80
C180
C180
C180
C180
C180
ENDCHAR
STARTCHAR 198
ENCODING 198
SWIDTH 720 0
DWIDTH 10 0
BBX 9 12 0 0
BITMAP
3F80
3F80
C800
C800
C800
FE00
FE00
C800
C800
C800
CF80
CF80
ENDCHAR
STARTCHAR 199
ENCODING 199
SWIDTH 720 0
DWIDTH 10 0
BBX 9 15 0 -3
BITMAP
3E00
3E00
C180
C180
C000
C000
C000
C000
C000
C180
3E00
3E00
0600
0600
3800
ENDCHAR
STARTCHAR 200
ENCODING 200
SWIDTH 720 0
DWIDTH 10 0
BBX 9 17 0 0
BITMAP
3000
3000
0800
0800
0000
FF80
FF80
C000
C000
C000
FE00
FE00
C000
C000
C000
FF80
FF80
ENDCHAR
STARTCHAR 201
ENCODING 201
SWIDTH 720 0
DWIDTH 10 0
BBX 9 17 0 0
BITMAP
0600
0600
0800
0800
0000
FF80
FF80
C000
C000
C000
FE00
FE00
C000
C000
C000
FF80
FF80
ENDCHAR
STARTCHAR 202
ENCODING 202
SWIDTH 720 0
DWIDTH 10 0
BBX 9 17 0 0
BITMAP
0800
0800
3600
3600
0000
FF80
FF80
C000
C000
C000
FE00
FE00
C000
C000
C000
FF80
FF80
ENDCHAR
STARTCHAR 203
ENCODING 203
SWIDTH 720 0
DWIDTH 10 0
BBX 9 15 0 0
BITMAP
3600
3600
0000
FF80
FF80
C000
C000
C000
FE00
FE00
C000
C000
C000
FF80
FF80
ENDCHAR
STARTCHAR 204
ENCODING 204
SWIDTH 720 0
DWIDTH 10 0
BBX 5 17 2 0
BITMAP
C0
C0
20
20
00
F8
F8
20
20
20
20
20
20
20
20
F8
F8
ENDCHAR
STARTCHAR 205
ENCODING 205
SWIDTH 720 0
DWIDTH 10 0
BBX 5 17 2 0
BITMAP
18
18
20
20
00
F8
F8
20
20
20
20
20
20
20
20
F8
F8
ENDCHAR
STARTCHAR 206
ENCODING 206
SWIDTH 720 0
DWIDTH 10 0
BBX 5 17 2 0
BITMAP
20
20
D8
D8
00
F8
F8
20
20
20
20
20
20
20
20
F8
F8
ENDCHAR
STARTCHAR 207
ENCODING 207
SWIDTH 720 0
DWIDTH 10 0
BBX 5 15 2 0
BITMAP
D8
D8
00
F8
F8
20
20
20
20
20
20
20
20
F8
F8
ENDCHAR
STARTCHAR 208
ENCODING 208
SWIDTH 720 0
DWIDTH 10 0
BBX 9 12 0 0
BITMAP
3E00
3E00
3180
3180
3180
F980
F980
3180
3180
3180
3E00
3E00
ENDCHAR
STARTCHAR 209
ENCODING 209
SWIDTH 720 0
DWIDTH 10 0
BBX 9 17 0 0
BITMAP
3980
3980
CE00
CE00
0000
C180
C180
C180
C180
F180
C980
C980
C780
C780
C180
C180
C180
ENDCHAR
STARTCHAR 210
ENCODING 210
SWIDTH 720 0
DWIDTH 10 0
BBX 9 17 0 0
BITMAP
3000
3000
0800
0800
0000
3E00
3E00
C180
C180
C180
C180
C180
C180
C180
C180
3E00
3E00
ENDCHAR
STARTCHAR 211
ENCODING 211
SWIDTH 720 0
DWIDTH 10 0
BBX 9 17 0 0
BITMAP
0600
0600
0800
0800
0000
3E00
3E00
C180
C180
C180
C180
C180
C180
C180
C180
3E00
3E00
ENDCHAR
STARTCHAR 212
ENCODING 212
SWIDTH 720 0
DWIDTH 10 0
BBX 9 17 0 0
BITMAP
0800
0800
3600
3600
0000
3E00
3E00
C180
C180
C180
C180
C180
C180
C180
C180
3E00
3E00
ENDCHAR
STARTCHAR 213
ENCODING 213
SWIDTH 720 0
DWIDTH 10 0
BBX 9 17 0 0
BITMAP
3980
3980
CE00
CE00
0000
3E00
3E00
C180
C180
C180
C180
C180
C180
C180
C180
3E00
3E00
ENDCHAR
STARTCHAR 214
ENCODING 214
SWIDTH 720 0
DWIDTH 10 0
BBX 9 15 0 0
BITMAP
3600
3600
0000
3E00
3E00
C180
C180
C180
C180
C180
C180
C180
C180
3E00
3E00
ENDCHAR
STARTCHAR 215
ENCODING 215
SWIDTH 720 0
DWIDTH 10 0
BBX 9 8 0 2
BITMAP
C180
C180
3600
0800
0800
3600
3600
C180
ENDCHAR
STARTCHAR 216
ENCODING 216
SWIDTH 720 0
DWIDTH 10 0
BBX 9 15 0 -2
BITMAP
0180
3E00
3E00
C780
C780
C980
C980
C980
C980
C980
F180
3E00
3E00
C000
C000
ENDCHAR
STARTCHAR 217
ENCODING 217
SWIDTH 720 0
DWIDTH 10 0
BBX 9 17 0 0
BITMAP
3000
3000
0800
0800
0000
C180
C180
C180
C180
C180
C180
C180
C180
C180
C180
3E00
3E00
ENDCHAR
STARTCHAR 218
ENCODING 218
SWIDTH 720 0
DWIDTH 10 0
BBX 9 17 0 0
BITMAP
0600
0600
0800
0800
0000
C180
C180
C180
C180
C180
C180
C180
C180
C180
C180
3E00
3E00
ENDCHAR
STARTCHAR 219
ENCODING 219
SWIDTH 720 0
DWIDTH 10 0
BBX 9 17 0 0
BITMAP
0800
0800
3600
3600
0000
C180
C180
C180
C180
C180
C180
C180
C180
C180
C180
3E00
3E00
ENDCHAR
STARTCHAR 220
ENCODING 220
SWIDTH 720 0
DWIDTH 10 0
BBX 9 15 0 0
BITMAP
3600
3600
0000
C180
C180
C180
C180
C180
C180
C180
C180
C180
C180
3E00
3E00
ENDCHAR
STARTCHAR 221
ENCODING 221
SWIDTH 720 0
DWIDTH 10 0
BBX 9 17 0 0
BITMAP
0600
0600
0800
0800
0000
C180
C180
C180
C180
3600
0800
0800
0800
0800
0800
0800
0800
ENDCHAR
STARTCHAR 222
ENCODING 222
SWIDTH 720 0
DWIDTH 10 0
BBX 7 12 2 0
BITMAP
C0
C0
F8
F8
C6
C6
C6
C6
C6
F8
C0
C0
ENDCHAR
STARTCHAR 223
ENCODING 223
SWIDTH 720 0
DWIDTH 10 0
BBX 9 12 0 0
BITMAP
3E00
3E00
C180
C180
C600
C800
C800
C600
C600
C180
CE00
CE00
ENDCHAR
STARTCHAR 224
ENCODING 224
SWIDTH 720 0
DWIDTH 10 0
BBX 9 13 0 0
BITMAP
3000
0800
0800
0000
0000
3E00
0180
0180
3F80
3F80
C180
3F80
3F80
ENDCHAR
STARTCHAR 225
ENCODING 225
SWIDTH 720 0
DWIDTH 10 0
BBX 9 13 0 0
BITMAP
0600
0800
0800
0000
0000
3E00
0180
0180
3F80
3F80
C180
3F80
3F80
ENDCHAR
STARTCHAR 226
ENCODING 226
SWIDTH 720 0
DWIDTH 10 0
BBX 9 13 0 0
BITMAP
0800
3600
3600
0000
0000
3E00
0180
0180
3F80
3F80
C180
3F80
3F80
ENDCHAR
STARTCHAR 227
ENCODING 227
SWIDTH 720 0
DWIDTH 10 0
BBX 9 13 0 0
BITMAP
3980
CE00
CE00
0000
0000
3E00
0180
0180
3F80
3F80
C180
3F80
3F80
ENDCHAR
STARTCHAR 228
ENCODING 228
SWIDTH 720 0
DWIDTH 10 0
BBX 9 12 0 0
BITMAP
3600
3600
0000
0000
3E00
0180
0180
3F80
3F80
C180
3F80
3F80
ENDCHAR
STARTCHAR 229
ENCODING 229
SWIDTH 720 0
DWIDTH 10 0
BBX 9 13 0 0
BITMAP
0800
3600
3600
0800
0800
3E00
0180
0180
3F80
3F80
C180
3F80
3F80
ENDCHAR
STARTCHAR 230
ENCODING 230
SWIDTH 720 0
DWIDTH 10 0
BBX 9 8 0 0
BITMAP
3E00
0980
0980
3E00
3E00
C800
3F80
3F80
ENDCHAR
STARTCHAR 231
ENCODING 231
SWIDTH 720 0
DWIDTH 10 0
BBX 9 11 0 -3
BITMAP
3E00
C180
C180
C000
C000
C180
3E00
3E00
0600
0600
3800
ENDCHAR
STARTCHAR 232
ENCODING 232
SWIDTH 720 0
DWIDTH 10 0
BBX 9 13 0 0
BITMAP
3000
0800
0800
0000
0000
3E00
C180
C180
FE00
FE00
C000
3E00
3E00
ENDCHAR
STARTCHAR 233
ENCODING 233
SWIDTH 720 0
DWIDTH 10 0
BBX 9 13 0 0
BITMAP
0600
0800
0800
0000
0000
3E00
C180
C180
FE00
FE00
C000
3E00
3E00
ENDCHAR
STARTCHAR 234
ENCODING 234
SWIDTH 720 0
DWIDTH 10 0
BBX 9 13 0 0
BITMAP
0800
3600
3600
0000
0000
3E00
C180
C180
FE00
FE00
C000
3E00
3E00
ENDCHAR
STARTCHAR 235
ENCODING 235
SWIDTH 720 0
DWIDTH 10 0
BBX 9 12 0 0
BITMAP
3600
3600
0000
0000
3E00
C180
C180
FE00
FE00
C000
3E00
3E00
ENDCHAR
STARTCHAR 236
ENCODING 236
SWIDTH 720 0
DWIDTH 10 0
BBX 5 13 2 0
BITMAP
C0
20
20
00
00
E0
20
20
20
20
20
F8
F8
ENDCHAR
STARTCHAR 237
ENCODING 237
SWIDTH 720 0
DWIDTH 10 0
BBX 5 13 2 0
BITMAP
18
20
20
00
00
E0
20
20
20
20
20
F8
F8
ENDCHAR
STARTCHAR 238
ENCODING 238
SWIDTH 720 0
DWIDTH 10 0
BBX 5 13 2 0
BITMAP
20
D8
D8
00
00
E0
20
20
20
20
20
F8
F8
ENDCHAR
STARTCHAR 239
ENCODING 239
SWIDTH 720 0
DWIDTH 10 0
BBX 5 12 2 0
BITMAP
D8
D8
00
00
E0
20
20
20
20
20
F8
F8
ENDCHAR
STARTCHAR 240
ENCODING 240
SWIDTH 720 0
DWIDTH 10 0
BBX 9 15 0 0
BITMAP
3600
3600
0800
3600
3600
0180
0180
3F80
C180
C180
C180
C180
C180
3E00
3E00
ENDCHAR
STARTCHAR 241
ENCODING 241
SWIDTH 720 0
DWIDTH 10 0
BBX 9 13 0 0
BITMAP
3980
CE00
CE00
0000
0000
CE00
F180
F180
C180
C180
C180
C180
C180
ENDCHAR
STARTCHAR 242
ENCODING 242
SWIDTH 720 0
DWIDTH 10 0
BBX 9 13 0 0
BITMAP
3000
0800
0800
0000
0000
3E00
C180
C180
C180
C180
C180
3E00
3E00
ENDCHAR
STARTCHAR 243
ENCODING 243
SWIDTH 720 0
DWIDTH 10 0
BBX 9 13 0 0
BITMAP
0600
0800
0800
0000
0000
3E00
C180
C180
C180
C180
C180
3E00
3E00
ENDCHAR
STARTCHAR 244
ENCODING 244
SWIDTH 720 0
DWIDTH 10 0
BBX 9 13 0 0
BITMAP
0800
3600
3600
0000
0000
3E00
C180
C180
C180
C180
C180
3E00
3E00
ENDCHAR
STARTCHAR 245
ENCODING 245
SWIDTH 720 0
DWIDTH 10 0
BBX 9 13 0 0
BITMAP
3980
CE00
CE00
0000
0000
3E00
C180
C180
C180
C180
C180
3E00
3E00
ENDCHAR
STARTCHAR 246
ENCODING 246
SWIDTH 720 0
DWIDTH 10 0
BBX 9 12 0 0
BITMAP
3600
3600
0000
0000
3E00
C180
C180
C180
C180
C180
3E00
3E00
ENDCHAR
STARTCHAR 247
ENCODING 247
SWIDTH 720 0
DWIDTH 10 0
BBX 9 8 0 2
BITMAP
0800
0800
0000
FF80
FF80
0000
0000
0800
ENDCHAR
STARTCHAR 248
ENCODING 248
SWIDTH 720 0
DWIDTH 10 0
BBX 9 8 0 0
BITMAP
3F80
C780
C780
C980
C980
F180
FE00
FE00
ENDCHAR
STARTCHAR 249
ENCODING 249
SWIDTH 720 0
DWIDTH 10 0
BBX 9 13 0 0
BITMAP
3000
0800
0800
0000
0000
C180
C180
C180
C180
C180
C180
3E00
3E00
ENDCHAR
STARTCHAR 250
ENCODING 250
SWIDTH 720 0
DWIDTH 10 0
BBX 9 13 0 0
BITMAP
0600
0800
0800
0000
0000
C180
C180
C180
C180
C180
C180
3E00
3E00
ENDCHAR
STARTCHAR 251
ENCODING 251
SWIDTH 720 0
DWIDTH 10 0
BBX 9 13 0 0
BITMAP
0800
3600
3600
0000
0000
C180
C180
C180
C180
C180
C180
3E00
3E00
ENDCHAR
STARTCHAR 252
ENCODING 252
SWIDTH 720 0
DWIDTH 10 0
BBX 9 12 0 0
BITMAP
3600
3600
0000
0000
C180
C180
C180
C180
C180
C180
3E00
3E00
ENDCHAR
STARTCHAR 253
ENCODING 253
SWIDTH 720 0
DWIDTH 10 0
BBX 9 16 0 -3
BITMAP
0600
0800
0800
0000
0000
C180
C180
C180
C180
C180
3600
0800
0800
3000
3000
C000
ENDCHAR
STARTCHAR 254
ENCODING 254
SWIDTH 720 0
DWIDTH 10 0
BBX 9 15 0 -3
BITMAP
C000
C000
C000
C000
FE00
C180
C180
C180
C180
C180
FE00
FE00
C000
C000
C000
ENDCHAR
STARTCHAR 255
ENCODING 255
SWIDTH 720 0
DWIDTH 10 0
BBX 9 15 0 -3
BITMAP
3600
3600
0000
0000
C180
C180
C180
C180
C180
3600
0800
0800
3000
3000
C000
ENDCHAR
ENDFONT
